<?xml version="1.0" encoding="UTF-8" standalone="no"?>
<!-- Created with Inkscape (http://www.inkscape.org/) -->

<svg
   width="121.11388mm"
   height="121.45488mm"
   viewBox="0 0 121.11388 121.45488"
   version="1.1"
   id="svg5"
   xml:space="preserve"
   xmlns:inkscape="http://www.inkscape.org/namespaces/inkscape"
   xmlns:sodipodi="http://sodipodi.sourceforge.net/DTD/sodipodi-0.dtd"
   xmlns="http://www.w3.org/2000/svg"
   xmlns:svg="http://www.w3.org/2000/svg"><sodipodi:namedview
     id="namedview7"
     pagecolor="#ffffff"
     bordercolor="#000000"
     borderopacity="0.25"
     inkscape:showpageshadow="2"
     inkscape:pageopacity="0.0"
     inkscape:pagecheckerboard="0"
     inkscape:deskcolor="#d1d1d1"
     inkscape:document-units="mm"
     showgrid="false" /><defs
     id="defs2" /><g
     inkscape:label="Layer 1"
     inkscape:groupmode="layer"
     id="layer1"
     transform="translate(-56.804769,-62.016524)"><path
       style="fill:#2c5d51;stroke:none;stroke-width:0.264583"
       d="m 113.4975,62.250498 c -1.46182,0.28425 -3.01466,0.27618 -4.49792,0.44098 -4.61195,0.51242 -9.43372,1.78586 -13.758334,3.52777 -10.2616,4.13322 -19.190098,10.75569 -26.105565,19.49098 -3.048424,3.85075 -5.379138,8.30951 -7.452413,12.70001 -2.558389,5.417862 -3.967745,11.555672 -4.542023,17.462492 -1.174195,12.07744 0.670216,24.34432 6.394106,35.18959 12.01383,22.76316 38.845939,36.33681 64.249649,31.39731 15.33446,-2.98186 29.17163,-11.13817 38.4527,-23.98898 1.98173,-2.74373 4.00817,-5.64462 5.38004,-8.73125 3.17394,-7.14163 5.15382,-14.19225 5.90894,-21.96042 0.29024,-2.98556 0.55853,-6.23808 0.26458,-9.26041 -0.71464,-7.34934 -2.46142,-14.67882 -5.55625,-21.431252 -7.47369,-16.30627 -22.61871,-28.69549 -39.95209,-33.02881 -3.5359,-0.88398 -6.98262,-1.28154 -10.58334,-1.63161 -2.58021,-0.25085 -5.61075,-0.68024 -8.20208,-0.1764 m 3.70416,49.653482 h 8.46667 l 2.77813,0.30877 0.13229,2.86623 h -11.37709 v 25.4 c 0,3.0652 -0.82841,7.72213 1.14644,10.31875 1.68805,2.21933 5.07365,2.18308 7.58482,2.38125 v 1.32292 h -24.60626 c 0,-2.15477 1.59385,-1.3462 3.175,-1.67561 1.86955,-0.38946 3.33852,-0.92895 4.10104,-2.82231 1.09803,-2.72573 0.66146,-6.11161 0.66146,-8.99583 v -17.19792 -6.08541 c 0,-0.68342 0.22067,-1.8079 -0.30876,-2.33707 -0.4916,-0.49186 -1.43987,-0.30877 -2.07249,-0.30877 h -5.55625 l 0.26459,-3.175 h 7.67291 c 0,-7.61524 1.44278,-16.552332 8.99584,-20.328732 3.58563,-1.79308 8.91752,-2.01057 12.7,-0.74983 2.84983,0.95012 4.84928,2.83396 4.49792,5.99732 -0.27014,2.43125 -3.45493,3.784072 -5.55625,2.64583 -3.12685,-1.6936 -4.4458,-8.64632 -9.26042,-6.30582 -2.26986,1.10332 -2.86861,3.2184 -3.21919,5.51207 -0.65246,4.271702 -0.2204,8.893432 -0.2204,13.229162 m -43.656248,21.43125 v 5.29167 l 0.264583,14.81667 -7.672917,0.26458 v -11.1125 -23.01875 -13.49375 -6.085412 c 8.743739,0 18.351236,-1.58883 26.458334,2.690012 9.994898,5.275 9.279468,21.7641 0.264584,27.64896 -3.750205,2.44792 -8.596048,2.99852 -12.964584,2.99852 -1.943656,0 -4.553612,-0.5199 -6.35,0 m 0,-6.87916 c 4.104825,0 8.156575,0.77655 12.170834,-0.61728 4.455583,-1.54702 6.35,-5.51709 6.35,-9.96606 0,-1.56924 -0.2413,-3.43244 -1.14644,-4.7625 -2.395008,-3.51896 -7.258315,-4.7625 -11.288977,-4.7625 -1.431978,0 -4.53644,-0.54478 -5.732648,0.39688 -0.875506,0.68924 -0.352769,3.86741 -0.352769,4.89479 v 14.81667 m 78.581258,-15.30165 c 4.78234,-0.73078 10.754,0.85513 14.11103,4.40954 2.18387,2.3122 3.77587,7.5184 -0.35269,8.95192 -0.55986,0.1942 -1.25757,0.35269 -1.85208,0.35269 -6.4659,0 -3.28534,-10.18408 -9.26043,-10.84792 -6.02774,-0.66966 -9.94119,2.71568 -12.4796,7.9375 -3.25464,6.69554 -2.11085,15.58316 2.38125,21.43125 4.14258,5.393 11.63055,6.89557 17.24211,2.99852 2.38945,-1.6592 3.84122,-3.91848 5.86502,-5.90894 0.48657,-0.47863 1.25703,-0.67865 1.6756,0.0442 0.58817,1.01573 -1.42451,3.59013 -1.94019,4.45373 -2.50613,4.19603 -5.74833,7.64222 -10.36294,9.43689 -2.13307,0.82947 -4.39896,1.09723 -6.61458,0.88186 -1.74969,-0.17013 -3.31735,-0.0474 -5.02709,-0.61727 -7.01172,-2.33733 -11.47498,-9.42208 -12.17083,-16.58065 -0.99034,-10.18725 2.81067,-20.86742 12.7,-25.4 1.92775,-0.88344 4.01611,-1.22714 6.08542,-1.54331 z"
       id="path185"
       inkscape:label="path185"
       inkscape:export-filename="path185.svg"
       inkscape:export-xdpi="96"
       inkscape:export-ydpi="96" /></g></svg>
